<svg width="180" height="48" viewBox="0 0 180 48" xmlns="http://www.w3.org/2000/svg" role="img" aria-label="BHIM logo">
  <defs>
    <linearGradient id="bhimGradient" x1="0%" y1="0%" x2="100%" y2="100%">
      <stop offset="0%" stop-color="#F78E1E"/>
      <stop offset="100%" stop-color="#006747"/>
    </linearGradient>
  </defs>
  <rect width="100%" height="100%" rx="10" fill="#0d1117"/>
  <g fill="url(#bhimGradient)">
    <path d="M28 32H18V16h9.6c3.2 0 5.4 1.7 5.4 4.4 0 1.6-.8 2.9-2.2 3.6 1.7.6 2.8 2.1 2.8 4.1C33.6 29.9 31.2 32 28 32Zm-6.6-9.3h5.4c1.3 0 2.1-.6 2.1-1.8 0-1.2-.8-1.8-2.1-1.8h-5.4v3.6Zm0 6.1h5.6c1.4 0 2.3-.7 2.3-1.9 0-1.2-.9-1.9-2.3-1.9h-5.6v3.8Z"/>
    <path d="M52 32h-4.2l-.7-2.6h-7.4L39 32h-4.2l7-16h3.1l7 16ZM45.4 19.6 43 26.5h5l-2.6-6.9Z"/>
    <path d="M67.8 32h-3.8V23.2L59.9 32h-2.5l-4.2-8.7V32h-3.8V16h4l5.2 10 5.2-10h4V32Z"/>
    <path d="M85.5 32H73.6V16h11.8v3.2h-8v3.2H84v3.2h-6.6v3.2h8v3.2Z"/>
  </g>
</svg>
